<svg width="30" height="30" viewBox="0 0 30 30" fill="none" xmlns="http://www.w3.org/2000/svg">
<circle cx="15" cy="15" r="15" fill="#121212"/>
<path d="M14.5916 19.084C13.9756 19.084 13.4236 18.984 12.9356 18.784C12.4476 18.584 12.0556 18.288 11.7596 17.896C11.4716 17.504 11.3196 17.032 11.3036 16.48H13.4876C13.5196 16.792 13.6276 17.032 13.8116 17.2C13.9956 17.36 14.2356 17.44 14.5316 17.44C14.8356 17.44 15.0756 17.372 15.2516 17.236C15.4276 17.092 15.5156 16.896 15.5156 16.648C15.5156 16.44 15.4436 16.268 15.2996 16.132C15.1636 15.996 14.9916 15.884 14.7836 15.796C14.5836 15.708 14.2956 15.608 13.9196 15.496C13.3756 15.328 12.9316 15.16 12.5876 14.992C12.2436 14.824 11.9476 14.576 11.6996 14.248C11.4516 13.92 11.3276 13.492 11.3276 12.964C11.3276 12.18 11.6116 11.568 12.1796 11.128C12.7476 10.68 13.4876 10.456 14.3996 10.456C15.3276 10.456 16.0756 10.68 16.6436 11.128C17.2116 11.568 17.5156 12.184 17.5556 12.976H15.3356C15.3196 12.704 15.2196 12.492 15.0356 12.34C14.8516 12.18 14.6156 12.1 14.3276 12.1C14.0796 12.1 13.8796 12.168 13.7276 12.304C13.5756 12.432 13.4996 12.62 13.4996 12.868C13.4996 13.14 13.6276 13.352 13.8836 13.504C14.1396 13.656 14.5396 13.82 15.0836 13.996C15.6276 14.18 16.0676 14.356 16.4036 14.524C16.7476 14.692 17.0436 14.936 17.2916 15.256C17.5396 15.576 17.6636 15.988 17.6636 16.492C17.6636 16.972 17.5396 17.408 17.2916 17.8C17.0516 18.192 16.6996 18.504 16.2356 18.736C15.7716 18.968 15.2236 19.084 14.5916 19.084Z" fill="white"/>
</svg>
